<mxfile host="app.diagrams.net" modified="2023-06-11T07:08:04.853Z" agent="Mozilla/5.0 (Windows NT 10.0; Win64; x64; rv:109.0) Gecko/20100101 Firefox/114.0" etag="Gh9zu3xady9Wundcc1Tv" version="21.3.8" type="device">
  <diagram name="Page-1" id="U2u9hIttSLKPWbfAfWeb">
    <mxGraphModel dx="1430" dy="763" grid="1" gridSize="10" guides="1" tooltips="1" connect="1" arrows="1" fold="1" page="1" pageScale="1" pageWidth="850" pageHeight="1100" math="0" shadow="0">
      <root>
        <mxCell id="0" />
        <mxCell id="1" parent="0" />
        <mxCell id="PV9w4DQJkRR4rTYonug8-1" value="TB" style="rounded=0;whiteSpace=wrap;html=1;" vertex="1" parent="1">
          <mxGeometry x="40" y="520" width="40" height="40" as="geometry" />
        </mxCell>
        <mxCell id="PV9w4DQJkRR4rTYonug8-2" value="TB" style="rounded=0;whiteSpace=wrap;html=1;" vertex="1" parent="1">
          <mxGeometry x="120" y="520" width="40" height="40" as="geometry" />
        </mxCell>
        <mxCell id="PV9w4DQJkRR4rTYonug8-3" value="TB" style="rounded=0;whiteSpace=wrap;html=1;" vertex="1" parent="1">
          <mxGeometry x="200" y="520" width="40" height="40" as="geometry" />
        </mxCell>
        <mxCell id="PV9w4DQJkRR4rTYonug8-4" value="TB" style="rounded=0;whiteSpace=wrap;html=1;" vertex="1" parent="1">
          <mxGeometry x="280" y="520" width="40" height="40" as="geometry" />
        </mxCell>
        <mxCell id="PV9w4DQJkRR4rTYonug8-5" value="TBotController" style="rounded=0;whiteSpace=wrap;html=1;" vertex="1" parent="1">
          <mxGeometry x="40" y="440" width="280" height="40" as="geometry" />
        </mxCell>
        <mxCell id="PV9w4DQJkRR4rTYonug8-6" value="" style="endArrow=classic;html=1;rounded=0;entryX=0.073;entryY=1.115;entryDx=0;entryDy=0;entryPerimeter=0;" edge="1" parent="1" target="PV9w4DQJkRR4rTYonug8-5">
          <mxGeometry width="50" height="50" relative="1" as="geometry">
            <mxPoint x="60" y="520" as="sourcePoint" />
            <mxPoint x="110" y="470" as="targetPoint" />
          </mxGeometry>
        </mxCell>
        <mxCell id="PV9w4DQJkRR4rTYonug8-8" value="" style="endArrow=classic;html=1;rounded=0;entryX=0.93;entryY=0.98;entryDx=0;entryDy=0;entryPerimeter=0;" edge="1" parent="1" target="PV9w4DQJkRR4rTYonug8-5">
          <mxGeometry width="50" height="50" relative="1" as="geometry">
            <mxPoint x="300" y="520" as="sourcePoint" />
            <mxPoint x="350" y="470" as="targetPoint" />
          </mxGeometry>
        </mxCell>
        <mxCell id="PV9w4DQJkRR4rTYonug8-9" value="" style="endArrow=classic;html=1;rounded=0;entryX=0.644;entryY=1.05;entryDx=0;entryDy=0;entryPerimeter=0;" edge="1" parent="1" target="PV9w4DQJkRR4rTYonug8-5">
          <mxGeometry width="50" height="50" relative="1" as="geometry">
            <mxPoint x="220" y="520" as="sourcePoint" />
            <mxPoint x="270" y="470" as="targetPoint" />
          </mxGeometry>
        </mxCell>
        <mxCell id="PV9w4DQJkRR4rTYonug8-10" value="" style="endArrow=classic;html=1;rounded=0;entryX=0.357;entryY=1.08;entryDx=0;entryDy=0;entryPerimeter=0;" edge="1" parent="1" target="PV9w4DQJkRR4rTYonug8-5">
          <mxGeometry width="50" height="50" relative="1" as="geometry">
            <mxPoint x="140" y="520" as="sourcePoint" />
            <mxPoint x="190" y="470" as="targetPoint" />
          </mxGeometry>
        </mxCell>
        <mxCell id="PV9w4DQJkRR4rTYonug8-11" value="TBotFactory" style="rounded=0;whiteSpace=wrap;html=1;" vertex="1" parent="1">
          <mxGeometry x="479" y="440" width="120" height="40" as="geometry" />
        </mxCell>
        <mxCell id="PV9w4DQJkRR4rTYonug8-12" value="Telegram" style="ellipse;shape=cloud;whiteSpace=wrap;html=1;" vertex="1" parent="1">
          <mxGeometry x="670" y="420" width="120" height="80" as="geometry" />
        </mxCell>
        <mxCell id="PV9w4DQJkRR4rTYonug8-13" value="" style="endArrow=classic;html=1;rounded=0;exitX=1;exitY=0.5;exitDx=0;exitDy=0;" edge="1" parent="1" source="PV9w4DQJkRR4rTYonug8-11" target="PV9w4DQJkRR4rTYonug8-12">
          <mxGeometry width="50" height="50" relative="1" as="geometry">
            <mxPoint x="560" y="460" as="sourcePoint" />
            <mxPoint x="610" y="410" as="targetPoint" />
          </mxGeometry>
        </mxCell>
        <mxCell id="PV9w4DQJkRR4rTYonug8-15" value="Backend" style="rounded=0;whiteSpace=wrap;html=1;" vertex="1" parent="1">
          <mxGeometry x="40" y="279" width="520" height="40" as="geometry" />
        </mxCell>
        <mxCell id="PV9w4DQJkRR4rTYonug8-16" value="UI" style="rounded=0;whiteSpace=wrap;html=1;" vertex="1" parent="1">
          <mxGeometry x="40" y="600" width="40" height="40" as="geometry" />
        </mxCell>
        <mxCell id="PV9w4DQJkRR4rTYonug8-17" value="UI" style="rounded=0;whiteSpace=wrap;html=1;" vertex="1" parent="1">
          <mxGeometry x="120" y="600" width="40" height="40" as="geometry" />
        </mxCell>
        <mxCell id="PV9w4DQJkRR4rTYonug8-18" value="UI" style="rounded=0;whiteSpace=wrap;html=1;" vertex="1" parent="1">
          <mxGeometry x="200" y="600" width="40" height="40" as="geometry" />
        </mxCell>
        <mxCell id="PV9w4DQJkRR4rTYonug8-19" value="UI" style="rounded=0;whiteSpace=wrap;html=1;" vertex="1" parent="1">
          <mxGeometry x="280" y="600" width="40" height="40" as="geometry" />
        </mxCell>
        <mxCell id="PV9w4DQJkRR4rTYonug8-20" value="" style="endArrow=classic;startArrow=classic;html=1;rounded=0;entryX=0.5;entryY=1;entryDx=0;entryDy=0;" edge="1" parent="1" target="PV9w4DQJkRR4rTYonug8-4">
          <mxGeometry width="50" height="50" relative="1" as="geometry">
            <mxPoint x="300" y="600" as="sourcePoint" />
            <mxPoint x="350" y="550" as="targetPoint" />
          </mxGeometry>
        </mxCell>
        <mxCell id="PV9w4DQJkRR4rTYonug8-21" value="" style="endArrow=classic;startArrow=classic;html=1;rounded=0;entryX=0.5;entryY=1;entryDx=0;entryDy=0;" edge="1" parent="1" target="PV9w4DQJkRR4rTYonug8-3">
          <mxGeometry width="50" height="50" relative="1" as="geometry">
            <mxPoint x="220" y="600" as="sourcePoint" />
            <mxPoint x="270" y="550" as="targetPoint" />
          </mxGeometry>
        </mxCell>
        <mxCell id="PV9w4DQJkRR4rTYonug8-22" value="" style="endArrow=classic;startArrow=classic;html=1;rounded=0;entryX=0.5;entryY=1;entryDx=0;entryDy=0;" edge="1" parent="1" target="PV9w4DQJkRR4rTYonug8-2">
          <mxGeometry width="50" height="50" relative="1" as="geometry">
            <mxPoint x="140" y="600" as="sourcePoint" />
            <mxPoint x="190" y="550" as="targetPoint" />
          </mxGeometry>
        </mxCell>
        <mxCell id="PV9w4DQJkRR4rTYonug8-23" value="" style="endArrow=classic;startArrow=classic;html=1;rounded=0;entryX=0.5;entryY=1;entryDx=0;entryDy=0;" edge="1" parent="1" target="PV9w4DQJkRR4rTYonug8-1">
          <mxGeometry width="50" height="50" relative="1" as="geometry">
            <mxPoint x="60" y="600" as="sourcePoint" />
            <mxPoint x="110" y="550" as="targetPoint" />
          </mxGeometry>
        </mxCell>
        <mxCell id="PV9w4DQJkRR4rTYonug8-25" value="" style="endArrow=classic;html=1;rounded=0;exitX=1;exitY=0.5;exitDx=0;exitDy=0;" edge="1" parent="1" source="PV9w4DQJkRR4rTYonug8-5">
          <mxGeometry width="50" height="50" relative="1" as="geometry">
            <mxPoint x="280" y="420" as="sourcePoint" />
            <mxPoint x="360" y="460" as="targetPoint" />
          </mxGeometry>
        </mxCell>
        <mxCell id="PV9w4DQJkRR4rTYonug8-29" value="Admin UI" style="rounded=0;whiteSpace=wrap;html=1;" vertex="1" parent="1">
          <mxGeometry x="40" y="200" width="240" height="40" as="geometry" />
        </mxCell>
        <mxCell id="PV9w4DQJkRR4rTYonug8-30" value="Nginx" style="rounded=0;whiteSpace=wrap;html=1;" vertex="1" parent="1">
          <mxGeometry x="40" y="120" width="520" height="40" as="geometry" />
        </mxCell>
        <mxCell id="PV9w4DQJkRR4rTYonug8-31" value="" style="endArrow=classic;html=1;rounded=0;entryX=0.5;entryY=0;entryDx=0;entryDy=0;exitX=0.377;exitY=1.033;exitDx=0;exitDy=0;exitPerimeter=0;" edge="1" parent="1" source="PV9w4DQJkRR4rTYonug8-30" target="PV9w4DQJkRR4rTYonug8-29">
          <mxGeometry width="50" height="50" relative="1" as="geometry">
            <mxPoint x="240" y="170" as="sourcePoint" />
            <mxPoint x="330" y="290" as="targetPoint" />
          </mxGeometry>
        </mxCell>
        <mxCell id="PV9w4DQJkRR4rTYonug8-33" value="" style="endArrow=classic;html=1;rounded=0;exitX=0.5;exitY=1;exitDx=0;exitDy=0;entryX=0.23;entryY=-0.025;entryDx=0;entryDy=0;entryPerimeter=0;" edge="1" parent="1" source="PV9w4DQJkRR4rTYonug8-29" target="PV9w4DQJkRR4rTYonug8-15">
          <mxGeometry width="50" height="50" relative="1" as="geometry">
            <mxPoint x="280" y="340" as="sourcePoint" />
            <mxPoint x="330" y="290" as="targetPoint" />
          </mxGeometry>
        </mxCell>
        <mxCell id="PV9w4DQJkRR4rTYonug8-34" value="Web" style="ellipse;shape=cloud;whiteSpace=wrap;html=1;" vertex="1" parent="1">
          <mxGeometry x="240" y="3" width="120" height="80" as="geometry" />
        </mxCell>
        <mxCell id="PV9w4DQJkRR4rTYonug8-35" value="" style="endArrow=classic;html=1;rounded=0;exitX=0.503;exitY=0.979;exitDx=0;exitDy=0;exitPerimeter=0;entryX=0.5;entryY=0;entryDx=0;entryDy=0;" edge="1" parent="1" source="PV9w4DQJkRR4rTYonug8-34" target="PV9w4DQJkRR4rTYonug8-30">
          <mxGeometry width="50" height="50" relative="1" as="geometry">
            <mxPoint x="280" y="340" as="sourcePoint" />
            <mxPoint x="330" y="290" as="targetPoint" />
          </mxGeometry>
        </mxCell>
        <mxCell id="PV9w4DQJkRR4rTYonug8-36" value="User UI" style="rounded=0;whiteSpace=wrap;html=1;" vertex="1" parent="1">
          <mxGeometry x="320" y="200" width="240" height="40" as="geometry" />
        </mxCell>
        <mxCell id="PV9w4DQJkRR4rTYonug8-37" value="" style="endArrow=classic;html=1;rounded=0;exitX=0.618;exitY=1.033;exitDx=0;exitDy=0;exitPerimeter=0;entryX=0.5;entryY=0;entryDx=0;entryDy=0;" edge="1" parent="1" source="PV9w4DQJkRR4rTYonug8-30" target="PV9w4DQJkRR4rTYonug8-36">
          <mxGeometry width="50" height="50" relative="1" as="geometry">
            <mxPoint x="280" y="340" as="sourcePoint" />
            <mxPoint x="330" y="290" as="targetPoint" />
          </mxGeometry>
        </mxCell>
        <mxCell id="PV9w4DQJkRR4rTYonug8-39" value="" style="endArrow=classic;html=1;rounded=0;exitX=0.5;exitY=1;exitDx=0;exitDy=0;entryX=0.789;entryY=-0.046;entryDx=0;entryDy=0;entryPerimeter=0;" edge="1" parent="1">
          <mxGeometry width="50" height="50" relative="1" as="geometry">
            <mxPoint x="440" y="240" as="sourcePoint" />
            <mxPoint x="440.27999999999975" y="277.1600000000001" as="targetPoint" />
          </mxGeometry>
        </mxCell>
        <mxCell id="PV9w4DQJkRR4rTYonug8-53" value="Database" style="image;aspect=fixed;perimeter=ellipsePerimeter;html=1;align=center;shadow=0;dashed=0;spacingTop=3;image=img/lib/active_directory/database.svg;" vertex="1" parent="1">
          <mxGeometry x="640" y="295" width="50" height="37" as="geometry" />
        </mxCell>
        <mxCell id="PV9w4DQJkRR4rTYonug8-54" value="" style="endArrow=classic;html=1;rounded=0;exitX=1;exitY=0.5;exitDx=0;exitDy=0;entryX=-0.026;entryY=0.48;entryDx=0;entryDy=0;entryPerimeter=0;" edge="1" parent="1" source="PV9w4DQJkRR4rTYonug8-15" target="PV9w4DQJkRR4rTYonug8-53">
          <mxGeometry width="50" height="50" relative="1" as="geometry">
            <mxPoint x="330" y="280" as="sourcePoint" />
            <mxPoint x="380" y="230" as="targetPoint" />
          </mxGeometry>
        </mxCell>
        <mxCell id="PV9w4DQJkRR4rTYonug8-56" value="Cache" style="image;aspect=fixed;perimeter=ellipsePerimeter;html=1;align=center;shadow=0;dashed=0;spacingTop=3;image=img/lib/active_directory/database.svg;" vertex="1" parent="1">
          <mxGeometry x="640" y="224" width="50" height="37" as="geometry" />
        </mxCell>
        <mxCell id="PV9w4DQJkRR4rTYonug8-57" value="" style="endArrow=classic;html=1;rounded=0;exitX=1;exitY=0.5;exitDx=0;exitDy=0;entryX=0;entryY=0.5;entryDx=0;entryDy=0;" edge="1" parent="1" source="PV9w4DQJkRR4rTYonug8-15" target="PV9w4DQJkRR4rTYonug8-56">
          <mxGeometry width="50" height="50" relative="1" as="geometry">
            <mxPoint x="280" y="330" as="sourcePoint" />
            <mxPoint x="330" y="280" as="targetPoint" />
          </mxGeometry>
        </mxCell>
        <mxCell id="PV9w4DQJkRR4rTYonug8-58" value="Queue" style="outlineConnect=0;dashed=0;verticalLabelPosition=bottom;verticalAlign=top;align=center;html=1;shape=mxgraph.aws3.queue;fillColor=#D9A741;gradientColor=none;" vertex="1" parent="1">
          <mxGeometry x="360" y="440" width="80" height="40" as="geometry" />
        </mxCell>
        <mxCell id="PV9w4DQJkRR4rTYonug8-59" value="" style="endArrow=classic;html=1;rounded=0;exitX=1;exitY=0.5;exitDx=0;exitDy=0;exitPerimeter=0;entryX=0;entryY=0.5;entryDx=0;entryDy=0;" edge="1" parent="1" source="PV9w4DQJkRR4rTYonug8-58" target="PV9w4DQJkRR4rTYonug8-11">
          <mxGeometry width="50" height="50" relative="1" as="geometry">
            <mxPoint x="280" y="410" as="sourcePoint" />
            <mxPoint x="330" y="360" as="targetPoint" />
          </mxGeometry>
        </mxCell>
        <mxCell id="PV9w4DQJkRR4rTYonug8-62" style="edgeStyle=orthogonalEdgeStyle;rounded=0;orthogonalLoop=1;jettySize=auto;html=1;" edge="1" parent="1" source="PV9w4DQJkRR4rTYonug8-60">
          <mxGeometry relative="1" as="geometry">
            <mxPoint x="180" y="420" as="targetPoint" />
          </mxGeometry>
        </mxCell>
        <mxCell id="PV9w4DQJkRR4rTYonug8-60" value="Queue" style="outlineConnect=0;dashed=0;verticalLabelPosition=bottom;verticalAlign=top;align=center;html=1;shape=mxgraph.aws3.queue;fillColor=#D9A741;gradientColor=none;rotation=90;" vertex="1" parent="1">
          <mxGeometry x="140" y="360" width="80" height="40" as="geometry" />
        </mxCell>
        <mxCell id="PV9w4DQJkRR4rTYonug8-63" value="" style="endArrow=classic;html=1;rounded=0;exitX=0;exitY=0.5;exitDx=0;exitDy=0;exitPerimeter=0;" edge="1" parent="1" source="PV9w4DQJkRR4rTYonug8-60">
          <mxGeometry width="50" height="50" relative="1" as="geometry">
            <mxPoint x="280" y="420" as="sourcePoint" />
            <mxPoint x="180" y="320" as="targetPoint" />
          </mxGeometry>
        </mxCell>
      </root>
    </mxGraphModel>
  </diagram>
</mxfile>
